<svg xmlns="http://www.w3.org/2000/svg" xmlns:xlink="http://www.w3.org/1999/xlink" width="2000" zoomAndPan="magnify" viewBox="0 0 1500 1499.999933" height="2000" preserveAspectRatio="xMidYMid meet" version="1.0"><defs><g/><clipPath id="1d653e5c05"><rect x="0" width="816" y="0" height="1334"/></clipPath><clipPath id="1646e62514"><rect x="0" width="593" y="0" height="91"/></clipPath><clipPath id="3930287a4e"><rect x="0" width="457" y="0" height="55"/></clipPath></defs><g fill="#001f54" fill-opacity="1"><g transform="translate(561.941811, 1140.179882)"><g><path d="M 630.65625 -214.28125 C 630.65625 -181.84375 624.726562 -152.363281 612.875 -125.84375 C 601.03125 -99.332031 584.347656 -76.71875 562.828125 -58 C 541.304688 -39.289062 515.414062 -24.945312 485.15625 -14.96875 C 454.90625 -4.988281 421.066406 0 383.640625 0 L 50.53125 0 L 50.53125 -17.78125 C 68.613281 -17.78125 82.332031 -23.082031 91.6875 -33.6875 C 101.050781 -44.289062 105.734375 -61.445312 105.734375 -85.15625 L 105.734375 -663.40625 C 105.734375 -684 101.519531 -700.375 93.09375 -712.53125 C 84.675781 -724.695312 73.296875 -730.78125 58.953125 -730.78125 L 50.53125 -730.78125 L 50.53125 -748.5625 L 354.625 -748.5625 C 387.6875 -748.5625 417.628906 -744.816406 444.453125 -737.328125 C 471.273438 -729.847656 494.195312 -719.242188 513.21875 -705.515625 C 532.25 -691.796875 546.910156 -675.109375 557.203125 -655.453125 C 567.503906 -635.804688 572.65625 -614.128906 572.65625 -590.421875 C 572.65625 -545.515625 556.125 -508.242188 523.0625 -478.609375 C 490 -448.984375 444.769531 -429.488281 387.375 -420.125 C 424.800781 -415.132812 458.484375 -406.867188 488.421875 -395.328125 C 518.367188 -383.796875 543.945312 -369.140625 565.15625 -351.359375 C 586.375 -333.578125 602.59375 -313.144531 613.8125 -290.0625 C 625.039062 -266.988281 630.65625 -241.726562 630.65625 -214.28125 Z M 162.8125 -423.875 C 200.863281 -423.875 229.710938 -423.875 249.359375 -423.875 C 269.015625 -423.875 283.832031 -424.03125 293.8125 -424.34375 C 303.789062 -424.65625 311.273438 -424.8125 316.265625 -424.8125 C 321.253906 -424.8125 328.117188 -424.8125 336.859375 -424.8125 C 391.742188 -427.925781 435.25 -444.296875 467.375 -473.921875 C 499.507812 -503.554688 515.578125 -542.390625 515.578125 -590.421875 C 515.578125 -634.085938 501.070312 -669.019531 472.0625 -695.21875 C 443.050781 -721.425781 403.90625 -734.53125 354.625 -734.53125 L 162.8125 -734.53125 Z M 378.03125 -14.03125 C 406.71875 -14.03125 432.914062 -18.707031 456.625 -28.0625 C 480.332031 -37.425781 500.601562 -50.835938 517.4375 -68.296875 C 534.28125 -85.765625 547.378906 -106.816406 556.734375 -131.453125 C 566.097656 -156.097656 570.78125 -183.707031 570.78125 -214.28125 C 570.78125 -244.21875 564.226562 -271.503906 551.125 -296.140625 C 538.03125 -320.785156 519.472656 -341.84375 495.453125 -359.3125 C 471.441406 -376.78125 442.4375 -390.347656 408.4375 -400.015625 C 374.4375 -409.679688 336.539062 -414.515625 294.75 -414.515625 L 162.8125 -414.515625 L 162.8125 -14.03125 Z M 378.03125 -14.03125 "/></g></g></g><g transform="matrix(1, 0, 0, 1, 212, 0.000000000000112861)"><g clip-path="url(#1d653e5c05)"><g fill="#001f54" fill-opacity="1"><g transform="translate(10.164569, 995.546119)"><g><path d="M 348.984375 -748.484375 C 406.992188 -748.484375 459.539062 -739.59375 506.625 -721.8125 C 553.71875 -704.039062 593.945312 -678.78125 627.3125 -646.03125 C 660.6875 -613.289062 686.570312 -574 704.96875 -528.15625 C 723.375 -482.3125 732.578125 -431.316406 732.578125 -375.171875 C 732.578125 -319.035156 724.625 -267.890625 708.71875 -221.734375 C 692.8125 -175.578125 670.515625 -136.125 641.828125 -103.375 C 613.140625 -70.632812 578.363281 -45.21875 537.5 -27.125 C 496.644531 -9.039062 451.582031 0 402.3125 0 L 49.59375 0 L 49.59375 -17.78125 C 67.675781 -17.78125 81.550781 -23.082031 91.21875 -33.6875 C 100.882812 -44.289062 105.71875 -61.441406 105.71875 -85.140625 L 105.71875 -663.34375 C 105.71875 -684.550781 101.351562 -701.234375 92.625 -713.390625 C 83.894531 -725.554688 72.351562 -731.640625 58 -731.640625 L 49.59375 -731.640625 L 49.59375 -748.484375 Z M 402.3125 -14.96875 C 443.476562 -14.96875 480.898438 -23.539062 514.578125 -40.6875 C 548.265625 -57.84375 577.113281 -82.171875 601.125 -113.671875 C 625.144531 -145.171875 643.703125 -183.0625 656.796875 -227.34375 C 669.898438 -271.632812 676.453125 -320.910156 676.453125 -375.171875 C 676.453125 -428.816406 668.65625 -477.78125 653.0625 -522.0625 C 637.46875 -566.351562 615.320312 -604.25 586.625 -635.75 C 557.9375 -667.25 523.472656 -691.570312 483.234375 -708.71875 C 443.003906 -725.875 398.253906 -734.453125 348.984375 -734.453125 L 161.859375 -734.453125 L 161.859375 -14.96875 Z M 402.3125 -14.96875 "/></g></g></g></g></g><g transform="matrix(1, 0, 0, 1, 455, 1171)"><g clip-path="url(#1646e62514)"><g fill="#001f54" fill-opacity="1"><g transform="translate(0.438256, 66.676974)"><g><path d="M 6.8125 -50.703125 L 28.96875 -50.703125 C 34.382812 -50.703125 39.191406 -49.648438 43.390625 -47.546875 C 47.585938 -45.453125 50.84375 -42.484375 53.15625 -38.640625 C 55.476562 -34.804688 56.640625 -30.378906 56.640625 -25.359375 C 56.640625 -20.328125 55.476562 -15.890625 53.15625 -12.046875 C 50.84375 -8.210938 47.585938 -5.242188 43.390625 -3.140625 C 39.191406 -1.046875 34.382812 0 28.96875 0 L 6.8125 0 Z M 28.546875 -7.96875 C 32.265625 -7.96875 35.535156 -8.675781 38.359375 -10.09375 C 41.179688 -11.519531 43.351562 -13.550781 44.875 -16.1875 C 46.394531 -18.820312 47.15625 -21.878906 47.15625 -25.359375 C 47.15625 -28.828125 46.394531 -31.878906 44.875 -34.515625 C 43.351562 -37.148438 41.179688 -39.175781 38.359375 -40.59375 C 35.535156 -42.019531 32.265625 -42.734375 28.546875 -42.734375 L 16.21875 -42.734375 L 16.21875 -7.96875 Z M 28.546875 -7.96875 "/></g></g></g><g fill="#001f54" fill-opacity="1"><g transform="translate(54.840102, 66.676974)"><g><path d="M 6.8125 -50.703125 L 16.21875 -50.703125 L 16.21875 0 L 6.8125 0 Z M 6.8125 -50.703125 "/></g></g></g><g fill="#001f54" fill-opacity="1"><g transform="translate(72.515372, 66.676974)"><g><path d="M 44.84375 -7.890625 L 44.84375 0 L 6.8125 0 L 6.8125 -50.703125 L 43.828125 -50.703125 L 43.828125 -42.8125 L 16.21875 -42.8125 L 16.21875 -29.625 L 40.703125 -29.625 L 40.703125 -21.875 L 16.21875 -21.875 L 16.21875 -7.890625 Z M 44.84375 -7.890625 "/></g></g></g><g fill="#001f54" fill-opacity="1"><g transform="translate(115.616733, 66.676974)"><g><path d="M 41.4375 -25.9375 L 50.34375 -25.9375 L 50.34375 -5.71875 C 47.738281 -3.644531 44.695312 -2.050781 41.21875 -0.9375 C 37.738281 0.164062 34.164062 0.71875 30.5 0.71875 C 25.332031 0.71875 20.671875 -0.398438 16.515625 -2.640625 C 12.359375 -4.890625 9.097656 -7.992188 6.734375 -11.953125 C 4.367188 -15.910156 3.1875 -20.378906 3.1875 -25.359375 C 3.1875 -30.328125 4.367188 -34.789062 6.734375 -38.75 C 9.097656 -42.707031 12.367188 -45.8125 16.546875 -48.0625 C 20.722656 -50.3125 25.421875 -51.4375 30.640625 -51.4375 C 34.890625 -51.4375 38.753906 -50.734375 42.234375 -49.328125 C 45.710938 -47.929688 48.632812 -45.878906 51 -43.171875 L 45.0625 -37.375 C 41.195312 -41.238281 36.535156 -43.171875 31.078125 -43.171875 C 27.503906 -43.171875 24.328125 -42.421875 21.546875 -40.921875 C 18.773438 -39.429688 16.601562 -37.332031 15.03125 -34.625 C 13.457031 -31.914062 12.671875 -28.828125 12.671875 -25.359375 C 12.671875 -21.972656 13.457031 -18.925781 15.03125 -16.21875 C 16.601562 -13.519531 18.773438 -11.394531 21.546875 -9.84375 C 24.328125 -8.300781 27.476562 -7.53125 31 -7.53125 C 34.957031 -7.53125 38.4375 -8.398438 41.4375 -10.140625 Z M 41.4375 -25.9375 "/></g></g></g><g fill="#001f54" fill-opacity="1"><g transform="translate(166.106922, 66.676974)"><g><path d="M 30.5 0.71875 C 25.332031 0.71875 20.671875 -0.398438 16.515625 -2.640625 C 12.359375 -4.890625 9.097656 -8.003906 6.734375 -11.984375 C 4.367188 -15.972656 3.1875 -20.429688 3.1875 -25.359375 C 3.1875 -30.273438 4.367188 -34.722656 6.734375 -38.703125 C 9.097656 -42.691406 12.359375 -45.8125 16.515625 -48.0625 C 20.671875 -50.3125 25.332031 -51.4375 30.5 -51.4375 C 35.664062 -51.4375 40.320312 -50.3125 44.46875 -48.0625 C 48.625 -45.8125 51.882812 -42.707031 54.25 -38.75 C 56.625 -34.789062 57.8125 -30.328125 57.8125 -25.359375 C 57.8125 -20.378906 56.625 -15.910156 54.25 -11.953125 C 51.882812 -7.992188 48.625 -4.890625 44.46875 -2.640625 C 40.320312 -0.398438 35.664062 0.71875 30.5 0.71875 Z M 30.5 -7.53125 C 33.875 -7.53125 36.914062 -8.289062 39.625 -9.8125 C 42.332031 -11.332031 44.457031 -13.457031 46 -16.1875 C 47.539062 -18.914062 48.3125 -21.972656 48.3125 -25.359375 C 48.3125 -28.734375 47.539062 -31.785156 46 -34.515625 C 44.457031 -37.242188 42.332031 -39.367188 39.625 -40.890625 C 36.914062 -42.410156 33.875 -43.171875 30.5 -43.171875 C 27.113281 -43.171875 24.066406 -42.410156 21.359375 -40.890625 C 18.660156 -39.367188 16.535156 -37.242188 14.984375 -34.515625 C 13.441406 -31.785156 12.671875 -28.734375 12.671875 -25.359375 C 12.671875 -21.972656 13.441406 -18.914062 14.984375 -16.1875 C 16.535156 -13.457031 18.660156 -11.332031 21.359375 -9.8125 C 24.066406 -8.289062 27.113281 -7.53125 30.5 -7.53125 Z M 30.5 -7.53125 "/></g></g></g><g fill="#001f54" fill-opacity="1"><g transform="translate(221.667795, 66.676974)"><g/></g></g><g fill="#001f54" fill-opacity="1"><g transform="translate(236.228164, 66.676974)"><g><path d="M 42.734375 -26.375 C 45.535156 -25.445312 47.753906 -23.910156 49.390625 -21.765625 C 51.035156 -19.617188 51.859375 -16.953125 51.859375 -13.765625 C 51.859375 -9.367188 50.164062 -5.972656 46.78125 -3.578125 C 43.40625 -1.191406 38.484375 0 32.015625 0 L 6.8125 0 L 6.8125 -50.703125 L 30.5625 -50.703125 C 36.550781 -50.703125 41.160156 -49.53125 44.390625 -47.1875 C 47.628906 -44.851562 49.25 -41.628906 49.25 -37.515625 C 49.25 -35.003906 48.671875 -32.78125 47.515625 -30.84375 C 46.359375 -28.914062 44.765625 -27.425781 42.734375 -26.375 Z M 16.21875 -43.3125 L 16.21875 -29.34375 L 29.546875 -29.34375 C 32.835938 -29.34375 35.363281 -29.929688 37.125 -31.109375 C 38.882812 -32.296875 39.765625 -34.023438 39.765625 -36.296875 C 39.765625 -38.609375 38.882812 -40.351562 37.125 -41.53125 C 35.363281 -42.71875 32.835938 -43.3125 29.546875 -43.3125 Z M 31.4375 -7.390625 C 38.726562 -7.390625 42.375 -9.828125 42.375 -14.703125 C 42.375 -19.578125 38.726562 -22.015625 31.4375 -22.015625 L 16.21875 -22.015625 L 16.21875 -7.390625 Z M 31.4375 -7.390625 "/></g></g></g><g fill="#001f54" fill-opacity="1"><g transform="translate(285.921505, 66.676974)"><g><path d="M 39.703125 -11.734375 L 14.34375 -11.734375 L 9.34375 0 L -0.359375 0 L 22.453125 -50.703125 L 31.734375 -50.703125 L 54.625 0 L 44.765625 0 Z M 36.578125 -19.125 L 27.015625 -41.296875 L 17.53125 -19.125 Z M 36.578125 -19.125 "/></g></g></g><g fill="#001f54" fill-opacity="1"><g transform="translate(334.7456, 66.676974)"><g><path d="M 39.984375 0 L 29.625 -14.84375 C 29.1875 -14.800781 28.535156 -14.78125 27.671875 -14.78125 L 16.21875 -14.78125 L 16.21875 0 L 6.8125 0 L 6.8125 -50.703125 L 27.671875 -50.703125 C 32.066406 -50.703125 35.894531 -49.976562 39.15625 -48.53125 C 42.414062 -47.082031 44.910156 -45.003906 46.640625 -42.296875 C 48.378906 -39.597656 49.25 -36.390625 49.25 -32.671875 C 49.25 -28.859375 48.320312 -25.570312 46.46875 -22.8125 C 44.613281 -20.0625 41.945312 -18.007812 38.46875 -16.65625 L 50.125 0 Z M 39.765625 -32.671875 C 39.765625 -35.898438 38.703125 -38.382812 36.578125 -40.125 C 34.453125 -41.863281 31.335938 -42.734375 27.234375 -42.734375 L 16.21875 -42.734375 L 16.21875 -22.53125 L 27.234375 -22.53125 C 31.335938 -22.53125 34.453125 -23.410156 36.578125 -25.171875 C 38.703125 -26.929688 39.765625 -29.429688 39.765625 -32.671875 Z M 39.765625 -32.671875 "/></g></g></g><g fill="#001f54" fill-opacity="1"><g transform="translate(382.265778, 66.676974)"><g><path d="M 42.734375 -26.375 C 45.535156 -25.445312 47.753906 -23.910156 49.390625 -21.765625 C 51.035156 -19.617188 51.859375 -16.953125 51.859375 -13.765625 C 51.859375 -9.367188 50.164062 -5.972656 46.78125 -3.578125 C 43.40625 -1.191406 38.484375 0 32.015625 0 L 6.8125 0 L 6.8125 -50.703125 L 30.5625 -50.703125 C 36.550781 -50.703125 41.160156 -49.53125 44.390625 -47.1875 C 47.628906 -44.851562 49.25 -41.628906 49.25 -37.515625 C 49.25 -35.003906 48.671875 -32.78125 47.515625 -30.84375 C 46.359375 -28.914062 44.765625 -27.425781 42.734375 -26.375 Z M 16.21875 -43.3125 L 16.21875 -29.34375 L 29.546875 -29.34375 C 32.835938 -29.34375 35.363281 -29.929688 37.125 -31.109375 C 38.882812 -32.296875 39.765625 -34.023438 39.765625 -36.296875 C 39.765625 -38.609375 38.882812 -40.351562 37.125 -41.53125 C 35.363281 -42.71875 32.835938 -43.3125 29.546875 -43.3125 Z M 31.4375 -7.390625 C 38.726562 -7.390625 42.375 -9.828125 42.375 -14.703125 C 42.375 -19.578125 38.726562 -22.015625 31.4375 -22.015625 L 16.21875 -22.015625 L 16.21875 -7.390625 Z M 31.4375 -7.390625 "/></g></g></g><g fill="#001f54" fill-opacity="1"><g transform="translate(431.95912, 66.676974)"><g><path d="M 30.5 0.71875 C 25.332031 0.71875 20.671875 -0.398438 16.515625 -2.640625 C 12.359375 -4.890625 9.097656 -8.003906 6.734375 -11.984375 C 4.367188 -15.972656 3.1875 -20.429688 3.1875 -25.359375 C 3.1875 -30.273438 4.367188 -34.722656 6.734375 -38.703125 C 9.097656 -42.691406 12.359375 -45.8125 16.515625 -48.0625 C 20.671875 -50.3125 25.332031 -51.4375 30.5 -51.4375 C 35.664062 -51.4375 40.320312 -50.3125 44.46875 -48.0625 C 48.625 -45.8125 51.882812 -42.707031 54.25 -38.75 C 56.625 -34.789062 57.8125 -30.328125 57.8125 -25.359375 C 57.8125 -20.378906 56.625 -15.910156 54.25 -11.953125 C 51.882812 -7.992188 48.625 -4.890625 44.46875 -2.640625 C 40.320312 -0.398438 35.664062 0.71875 30.5 0.71875 Z M 30.5 -7.53125 C 33.875 -7.53125 36.914062 -8.289062 39.625 -9.8125 C 42.332031 -11.332031 44.457031 -13.457031 46 -16.1875 C 47.539062 -18.914062 48.3125 -21.972656 48.3125 -25.359375 C 48.3125 -28.734375 47.539062 -31.785156 46 -34.515625 C 44.457031 -37.242188 42.332031 -39.367188 39.625 -40.890625 C 36.914062 -42.410156 33.875 -43.171875 30.5 -43.171875 C 27.113281 -43.171875 24.066406 -42.410156 21.359375 -40.890625 C 18.660156 -39.367188 16.535156 -37.242188 14.984375 -34.515625 C 13.441406 -31.785156 12.671875 -28.734375 12.671875 -25.359375 C 12.671875 -21.972656 13.441406 -18.914062 14.984375 -16.1875 C 16.535156 -13.457031 18.660156 -11.332031 21.359375 -9.8125 C 24.066406 -8.289062 27.113281 -7.53125 30.5 -7.53125 Z M 30.5 -7.53125 "/></g></g></g><g fill="#001f54" fill-opacity="1"><g transform="translate(487.519992, 66.676974)"><g><path d="M 22.53125 0.71875 C 18.613281 0.71875 14.832031 0.164062 11.1875 -0.9375 C 7.539062 -2.050781 4.65625 -3.523438 2.53125 -5.359375 L 5.796875 -12.671875 C 7.867188 -11.035156 10.414062 -9.695312 13.4375 -8.65625 C 16.457031 -7.613281 19.488281 -7.09375 22.53125 -7.09375 C 26.289062 -7.09375 29.097656 -7.695312 30.953125 -8.90625 C 32.816406 -10.113281 33.75 -11.707031 33.75 -13.6875 C 33.75 -15.132812 33.226562 -16.328125 32.1875 -17.265625 C 31.15625 -18.210938 29.84375 -18.953125 28.25 -19.484375 C 26.65625 -20.015625 24.484375 -20.617188 21.734375 -21.296875 C 17.867188 -22.210938 14.738281 -23.128906 12.34375 -24.046875 C 9.957031 -24.960938 7.90625 -26.398438 6.1875 -28.359375 C 4.476562 -30.316406 3.625 -32.960938 3.625 -36.296875 C 3.625 -39.097656 4.382812 -41.644531 5.90625 -43.9375 C 7.425781 -46.226562 9.71875 -48.050781 12.78125 -49.40625 C 15.851562 -50.757812 19.609375 -51.4375 24.046875 -51.4375 C 27.140625 -51.4375 30.179688 -51.046875 33.171875 -50.265625 C 36.171875 -49.492188 38.753906 -48.382812 40.921875 -46.9375 L 37.953125 -39.625 C 35.734375 -40.925781 33.414062 -41.914062 31 -42.59375 C 28.582031 -43.269531 26.242188 -43.609375 23.984375 -43.609375 C 20.265625 -43.609375 17.5 -42.976562 15.6875 -41.71875 C 13.875 -40.46875 12.96875 -38.800781 12.96875 -36.71875 C 12.96875 -35.269531 13.484375 -34.085938 14.515625 -33.171875 C 15.554688 -32.253906 16.875 -31.53125 18.46875 -31 C 20.0625 -30.46875 22.234375 -29.863281 24.984375 -29.1875 C 28.753906 -28.320312 31.847656 -27.414062 34.265625 -26.46875 C 36.679688 -25.53125 38.742188 -24.09375 40.453125 -22.15625 C 42.171875 -20.226562 43.03125 -17.625 43.03125 -14.34375 C 43.03125 -11.539062 42.269531 -9.003906 40.75 -6.734375 C 39.226562 -4.460938 36.921875 -2.648438 33.828125 -1.296875 C 30.734375 0.046875 26.96875 0.71875 22.53125 0.71875 Z M 22.53125 0.71875 "/></g></g></g><g fill="#001f54" fill-opacity="1"><g transform="translate(527.651342, 66.676974)"><g><path d="M 39.703125 -11.734375 L 14.34375 -11.734375 L 9.34375 0 L -0.359375 0 L 22.453125 -50.703125 L 31.734375 -50.703125 L 54.625 0 L 44.765625 0 Z M 36.578125 -19.125 L 27.015625 -41.296875 L 17.53125 -19.125 Z M 36.578125 -19.125 "/></g></g></g><g fill="#001f54" fill-opacity="1"><g transform="translate(576.55189, 66.676974)"><g/></g></g></g></g><g transform="matrix(1, 0, 0, 1, 523, 1265)"><g clip-path="url(#3930287a4e)"><g fill="#001f54" fill-opacity="1"><g transform="translate(2.563169, 39.970828)"><g><path d="M 13.5 0.4375 C 11.15625 0.4375 8.890625 0.101562 6.703125 -0.5625 C 4.515625 -1.226562 2.785156 -2.109375 1.515625 -3.203125 L 3.46875 -7.59375 C 4.71875 -6.613281 6.242188 -5.8125 8.046875 -5.1875 C 9.859375 -4.5625 11.675781 -4.25 13.5 -4.25 C 15.75 -4.25 17.429688 -4.609375 18.546875 -5.328125 C 19.660156 -6.054688 20.21875 -7.015625 20.21875 -8.203125 C 20.21875 -9.066406 19.90625 -9.78125 19.28125 -10.34375 C 18.664062 -10.90625 17.878906 -11.347656 16.921875 -11.671875 C 15.960938 -11.992188 14.660156 -12.351562 13.015625 -12.75 C 10.703125 -13.300781 8.828125 -13.851562 7.390625 -14.40625 C 5.960938 -14.957031 4.734375 -15.816406 3.703125 -16.984375 C 2.679688 -18.160156 2.171875 -19.742188 2.171875 -21.734375 C 2.171875 -23.410156 2.625 -24.9375 3.53125 -26.3125 C 4.445312 -27.6875 5.820312 -28.78125 7.65625 -29.59375 C 9.488281 -30.40625 11.738281 -30.8125 14.40625 -30.8125 C 16.257812 -30.8125 18.082031 -30.578125 19.875 -30.109375 C 21.664062 -29.648438 23.210938 -28.984375 24.515625 -28.109375 L 22.734375 -23.734375 C 21.398438 -24.515625 20.007812 -25.109375 18.5625 -25.515625 C 17.125 -25.921875 15.722656 -26.125 14.359375 -26.125 C 12.128906 -26.125 10.472656 -25.742188 9.390625 -24.984375 C 8.304688 -24.234375 7.765625 -23.238281 7.765625 -22 C 7.765625 -21.132812 8.070312 -20.425781 8.6875 -19.875 C 9.3125 -19.320312 10.101562 -18.882812 11.0625 -18.5625 C 12.019531 -18.25 13.320312 -17.890625 14.96875 -17.484375 C 17.226562 -16.960938 19.078125 -16.421875 20.515625 -15.859375 C 21.960938 -15.296875 23.203125 -14.4375 24.234375 -13.28125 C 25.265625 -12.125 25.78125 -10.5625 25.78125 -8.59375 C 25.78125 -6.914062 25.320312 -5.394531 24.40625 -4.03125 C 23.5 -2.675781 22.117188 -1.59375 20.265625 -0.78125 C 18.410156 0.03125 16.15625 0.4375 13.5 0.4375 Z M 13.5 0.4375 "/></g></g></g><g fill="#001f54" fill-opacity="1"><g transform="translate(26.598737, 39.970828)"><g><path d="M 18.265625 0.4375 C 15.171875 0.4375 12.378906 -0.234375 9.890625 -1.578125 C 7.398438 -2.921875 5.445312 -4.785156 4.03125 -7.171875 C 2.613281 -9.566406 1.90625 -12.238281 1.90625 -15.1875 C 1.90625 -18.132812 2.613281 -20.800781 4.03125 -23.1875 C 5.445312 -25.570312 7.398438 -27.4375 9.890625 -28.78125 C 12.378906 -30.132812 15.171875 -30.8125 18.265625 -30.8125 C 21.359375 -30.8125 24.148438 -30.132812 26.640625 -28.78125 C 29.128906 -27.4375 31.082031 -25.578125 32.5 -23.203125 C 33.914062 -20.835938 34.625 -18.164062 34.625 -15.1875 C 34.625 -12.207031 33.914062 -9.53125 32.5 -7.15625 C 31.082031 -4.78125 29.128906 -2.921875 26.640625 -1.578125 C 24.148438 -0.234375 21.359375 0.4375 18.265625 0.4375 Z M 18.265625 -4.515625 C 20.296875 -4.515625 22.117188 -4.96875 23.734375 -5.875 C 25.359375 -6.789062 26.628906 -8.066406 27.546875 -9.703125 C 28.472656 -11.335938 28.9375 -13.164062 28.9375 -15.1875 C 28.9375 -17.207031 28.472656 -19.035156 27.546875 -20.671875 C 26.628906 -22.304688 25.359375 -23.578125 23.734375 -24.484375 C 22.117188 -25.398438 20.296875 -25.859375 18.265625 -25.859375 C 16.242188 -25.859375 14.421875 -25.398438 12.796875 -24.484375 C 11.179688 -23.578125 9.910156 -22.304688 8.984375 -20.671875 C 8.054688 -19.035156 7.59375 -17.207031 7.59375 -15.1875 C 7.59375 -13.164062 8.054688 -11.335938 8.984375 -9.703125 C 9.910156 -8.066406 11.179688 -6.789062 12.796875 -5.875 C 14.421875 -4.96875 16.242188 -4.515625 18.265625 -4.515625 Z M 18.265625 -4.515625 "/></g></g></g><g fill="#001f54" fill-opacity="1"><g transform="translate(59.875392, 39.970828)"><g><path d="M 4.078125 -30.375 L 9.71875 -30.375 L 9.71875 -4.765625 L 25.59375 -4.765625 L 25.59375 0 L 4.078125 0 Z M 4.078125 -30.375 "/></g></g></g><g fill="#001f54" fill-opacity="1"><g transform="translate(82.609403, 39.970828)"><g><path d="M 17.140625 0.4375 C 12.941406 0.4375 9.671875 -0.738281 7.328125 -3.09375 C 4.984375 -5.457031 3.8125 -8.835938 3.8125 -13.234375 L 3.8125 -30.375 L 9.453125 -30.375 L 9.453125 -13.453125 C 9.453125 -7.492188 12.03125 -4.515625 17.1875 -4.515625 C 22.300781 -4.515625 24.859375 -7.492188 24.859375 -13.453125 L 24.859375 -30.375 L 30.421875 -30.375 L 30.421875 -13.234375 C 30.421875 -8.835938 29.253906 -5.457031 26.921875 -3.09375 C 24.597656 -0.738281 21.335938 0.4375 17.140625 0.4375 Z M 17.140625 0.4375 "/></g></g></g><g fill="#001f54" fill-opacity="1"><g transform="translate(113.586641, 39.970828)"><g><path d="M 18.140625 0.4375 C 15.066406 0.4375 12.296875 -0.234375 9.828125 -1.578125 C 7.359375 -2.921875 5.421875 -4.78125 4.015625 -7.15625 C 2.609375 -9.53125 1.90625 -12.207031 1.90625 -15.1875 C 1.90625 -18.164062 2.613281 -20.835938 4.03125 -23.203125 C 5.445312 -25.578125 7.390625 -27.4375 9.859375 -28.78125 C 12.335938 -30.132812 15.113281 -30.8125 18.1875 -30.8125 C 20.664062 -30.8125 22.929688 -30.375 24.984375 -29.5 C 27.046875 -28.632812 28.785156 -27.378906 30.203125 -25.734375 L 26.5625 -22.296875 C 24.351562 -24.671875 21.644531 -25.859375 18.4375 -25.859375 C 16.351562 -25.859375 14.488281 -25.398438 12.84375 -24.484375 C 11.195312 -23.578125 9.910156 -22.3125 8.984375 -20.6875 C 8.054688 -19.070312 7.59375 -17.238281 7.59375 -15.1875 C 7.59375 -13.132812 8.054688 -11.296875 8.984375 -9.671875 C 9.910156 -8.054688 11.195312 -6.789062 12.84375 -5.875 C 14.488281 -4.96875 16.351562 -4.515625 18.4375 -4.515625 C 21.644531 -4.515625 24.351562 -5.710938 26.5625 -8.109375 L 30.203125 -4.640625 C 28.785156 -2.992188 27.039062 -1.734375 24.96875 -0.859375 C 22.90625 0.00390625 20.628906 0.4375 18.140625 0.4375 Z M 16.09375 9.890625 C 14.53125 9.890625 13.203125 9.585938 12.109375 8.984375 L 13.109375 6.421875 C 14.003906 6.878906 14.988281 7.109375 16.0625 7.109375 C 17.59375 7.109375 18.359375 6.585938 18.359375 5.546875 C 18.359375 5.117188 18.171875 4.773438 17.796875 4.515625 C 17.421875 4.253906 16.84375 4.125 16.0625 4.125 L 14.71875 4.125 L 15.875 -0.296875 L 18.828125 -0.296875 L 18.21875 2.125 C 19.46875 2.269531 20.410156 2.664062 21.046875 3.3125 C 21.679688 3.96875 22 4.785156 22 5.765625 C 22 7.015625 21.460938 8.015625 20.390625 8.765625 C 19.328125 9.515625 17.894531 9.890625 16.09375 9.890625 Z M 16.09375 9.890625 "/></g></g></g><g fill="#001f54" fill-opacity="1"><g transform="translate(141.873988, 39.970828)"><g><path d="M 18.265625 0.4375 C 15.171875 0.4375 12.378906 -0.234375 9.890625 -1.578125 C 7.398438 -2.921875 5.445312 -4.785156 4.03125 -7.171875 C 2.613281 -9.566406 1.90625 -12.238281 1.90625 -15.1875 C 1.90625 -18.132812 2.613281 -20.800781 4.03125 -23.1875 C 5.445312 -25.570312 7.398438 -27.4375 9.890625 -28.78125 C 12.378906 -30.132812 15.171875 -30.8125 18.265625 -30.8125 C 21.359375 -30.8125 24.148438 -30.132812 26.640625 -28.78125 C 29.128906 -27.4375 31.082031 -25.578125 32.5 -23.203125 C 33.914062 -20.835938 34.625 -18.164062 34.625 -15.1875 C 34.625 -12.207031 33.914062 -9.53125 32.5 -7.15625 C 31.082031 -4.78125 29.128906 -2.921875 26.640625 -1.578125 C 24.148438 -0.234375 21.359375 0.4375 18.265625 0.4375 Z M 18.265625 -4.515625 C 20.296875 -4.515625 22.117188 -4.96875 23.734375 -5.875 C 25.359375 -6.789062 26.628906 -8.066406 27.546875 -9.703125 C 28.472656 -11.335938 28.9375 -13.164062 28.9375 -15.1875 C 28.9375 -17.207031 28.472656 -19.035156 27.546875 -20.671875 C 26.628906 -22.304688 25.359375 -23.578125 23.734375 -24.484375 C 22.117188 -25.398438 20.296875 -25.859375 18.265625 -25.859375 C 16.242188 -25.859375 14.421875 -25.398438 12.796875 -24.484375 C 11.179688 -23.578125 9.910156 -22.304688 8.984375 -20.671875 C 8.054688 -19.035156 7.59375 -17.207031 7.59375 -15.1875 C 7.59375 -13.164062 8.054688 -11.335938 8.984375 -9.703125 C 9.910156 -8.066406 11.179688 -6.789062 12.796875 -5.875 C 14.421875 -4.96875 16.242188 -4.515625 18.265625 -4.515625 Z M 21.390625 -32.84375 C 20.660156 -32.84375 20.03125 -32.988281 19.5 -33.28125 C 18.96875 -33.570312 18.3125 -34.003906 17.53125 -34.578125 C 17.0625 -34.953125 16.675781 -35.234375 16.375 -35.421875 C 16.070312 -35.609375 15.773438 -35.703125 15.484375 -35.703125 C 14.878906 -35.703125 14.378906 -35.472656 13.984375 -35.015625 C 13.597656 -34.554688 13.390625 -33.921875 13.359375 -33.109375 L 10.453125 -33.109375 C 10.484375 -34.867188 10.925781 -36.273438 11.78125 -37.328125 C 12.632812 -38.390625 13.753906 -38.921875 15.140625 -38.921875 C 15.859375 -38.921875 16.484375 -38.773438 17.015625 -38.484375 C 17.554688 -38.191406 18.21875 -37.757812 19 -37.1875 C 19.46875 -36.8125 19.851562 -36.53125 20.15625 -36.34375 C 20.457031 -36.15625 20.753906 -36.0625 21.046875 -36.0625 C 21.648438 -36.0625 22.144531 -36.273438 22.53125 -36.703125 C 22.925781 -37.140625 23.140625 -37.75 23.171875 -38.53125 L 26.078125 -38.53125 C 26.015625 -36.820312 25.5625 -35.445312 24.71875 -34.40625 C 23.882812 -33.363281 22.773438 -32.84375 21.390625 -32.84375 Z M 21.390625 -32.84375 "/></g></g></g><g fill="#001f54" fill-opacity="1"><g transform="translate(175.150643, 39.970828)"><g><path d="M 26.859375 -4.734375 L 26.859375 0 L 4.078125 0 L 4.078125 -30.375 L 26.25 -30.375 L 26.25 -25.640625 L 9.71875 -25.640625 L 9.71875 -17.75 L 24.390625 -17.75 L 24.390625 -13.109375 L 9.71875 -13.109375 L 9.71875 -4.734375 Z M 26.859375 -4.734375 "/></g></g></g><g fill="#001f54" fill-opacity="1"><g transform="translate(200.965017, 39.970828)"><g><path d="M 13.5 0.4375 C 11.15625 0.4375 8.890625 0.101562 6.703125 -0.5625 C 4.515625 -1.226562 2.785156 -2.109375 1.515625 -3.203125 L 3.46875 -7.59375 C 4.71875 -6.613281 6.242188 -5.8125 8.046875 -5.1875 C 9.859375 -4.5625 11.675781 -4.25 13.5 -4.25 C 15.75 -4.25 17.429688 -4.609375 18.546875 -5.328125 C 19.660156 -6.054688 20.21875 -7.015625 20.21875 -8.203125 C 20.21875 -9.066406 19.90625 -9.78125 19.28125 -10.34375 C 18.664062 -10.90625 17.878906 -11.347656 16.921875 -11.671875 C 15.960938 -11.992188 14.660156 -12.351562 13.015625 -12.75 C 10.703125 -13.300781 8.828125 -13.851562 7.390625 -14.40625 C 5.960938 -14.957031 4.734375 -15.816406 3.703125 -16.984375 C 2.679688 -18.160156 2.171875 -19.742188 2.171875 -21.734375 C 2.171875 -23.410156 2.625 -24.9375 3.53125 -26.3125 C 4.445312 -27.6875 5.820312 -28.78125 7.65625 -29.59375 C 9.488281 -30.40625 11.738281 -30.8125 14.40625 -30.8125 C 16.257812 -30.8125 18.082031 -30.578125 19.875 -30.109375 C 21.664062 -29.648438 23.210938 -28.984375 24.515625 -28.109375 L 22.734375 -23.734375 C 21.398438 -24.515625 20.007812 -25.109375 18.5625 -25.515625 C 17.125 -25.921875 15.722656 -26.125 14.359375 -26.125 C 12.128906 -26.125 10.472656 -25.742188 9.390625 -24.984375 C 8.304688 -24.234375 7.765625 -23.238281 7.765625 -22 C 7.765625 -21.132812 8.070312 -20.425781 8.6875 -19.875 C 9.3125 -19.320312 10.101562 -18.882812 11.0625 -18.5625 C 12.019531 -18.25 13.320312 -17.890625 14.96875 -17.484375 C 17.226562 -16.960938 19.078125 -16.421875 20.515625 -15.859375 C 21.960938 -15.296875 23.203125 -14.4375 24.234375 -13.28125 C 25.265625 -12.125 25.78125 -10.5625 25.78125 -8.59375 C 25.78125 -6.914062 25.320312 -5.394531 24.40625 -4.03125 C 23.5 -2.675781 22.117188 -1.59375 20.265625 -0.78125 C 18.410156 0.03125 16.15625 0.4375 13.5 0.4375 Z M 13.5 0.4375 "/></g></g></g><g fill="#001f54" fill-opacity="1"><g transform="translate(233.721116, 39.970828)"><g><path d="M 8.8125 0.4375 C 6.875 0.4375 5.085938 0.0546875 3.453125 -0.703125 C 1.816406 -1.472656 0.476562 -2.554688 -0.5625 -3.953125 L 2.640625 -7.8125 C 4.316406 -5.5 6.328125 -4.34375 8.671875 -4.34375 C 11.828125 -4.34375 13.40625 -6.207031 13.40625 -9.9375 L 13.40625 -25.640625 L 2.609375 -25.640625 L 2.609375 -30.375 L 19.046875 -30.375 L 19.046875 -10.234375 C 19.046875 -6.679688 18.175781 -4.015625 16.4375 -2.234375 C 14.707031 -0.453125 12.164062 0.4375 8.8125 0.4375 Z M 8.8125 0.4375 "/></g></g></g><g fill="#001f54" fill-opacity="1"><g transform="translate(253.331403, 39.970828)"><g><path d="M 17.140625 0.4375 C 12.941406 0.4375 9.671875 -0.738281 7.328125 -3.09375 C 4.984375 -5.457031 3.8125 -8.835938 3.8125 -13.234375 L 3.8125 -30.375 L 9.453125 -30.375 L 9.453125 -13.453125 C 9.453125 -7.492188 12.03125 -4.515625 17.1875 -4.515625 C 22.300781 -4.515625 24.859375 -7.492188 24.859375 -13.453125 L 24.859375 -30.375 L 30.421875 -30.375 L 30.421875 -13.234375 C 30.421875 -8.835938 29.253906 -5.457031 26.921875 -3.09375 C 24.597656 -0.738281 21.335938 0.4375 17.140625 0.4375 Z M 17.140625 0.4375 "/></g></g></g><g fill="#001f54" fill-opacity="1"><g transform="translate(284.308641, 39.970828)"><g><path d="M 23.953125 0 L 17.75 -8.890625 C 17.488281 -8.867188 17.097656 -8.859375 16.578125 -8.859375 L 9.71875 -8.859375 L 9.71875 0 L 4.078125 0 L 4.078125 -30.375 L 16.578125 -30.375 C 19.210938 -30.375 21.503906 -29.9375 23.453125 -29.0625 C 25.398438 -28.195312 26.894531 -26.953125 27.9375 -25.328125 C 28.976562 -23.710938 29.5 -21.789062 29.5 -19.5625 C 29.5 -17.28125 28.941406 -15.3125 27.828125 -13.65625 C 26.722656 -12.007812 25.128906 -10.785156 23.046875 -9.984375 L 30.03125 0 Z M 23.828125 -19.5625 C 23.828125 -21.5 23.1875 -22.988281 21.90625 -24.03125 C 20.632812 -25.070312 18.769531 -25.59375 16.3125 -25.59375 L 9.71875 -25.59375 L 9.71875 -13.5 L 16.3125 -13.5 C 18.769531 -13.5 20.632812 -14.023438 21.90625 -15.078125 C 23.1875 -16.128906 23.828125 -17.625 23.828125 -19.5625 Z M 23.828125 -19.5625 "/></g></g></g><g fill="#001f54" fill-opacity="1"><g transform="translate(312.769544, 39.970828)"><g><path d="M 4.078125 -30.375 L 9.71875 -30.375 L 9.71875 0 L 4.078125 0 Z M 9.125 -38.796875 L 15.5 -38.796875 L 7.953125 -32.84375 L 3.265625 -32.84375 Z M 9.125 -38.796875 "/></g></g></g><g fill="#001f54" fill-opacity="1"><g transform="translate(323.35566, 39.970828)"><g><path d="M 4.078125 -30.375 L 17.359375 -30.375 C 20.597656 -30.375 23.472656 -29.742188 25.984375 -28.484375 C 28.503906 -27.222656 30.457031 -25.441406 31.84375 -23.140625 C 33.238281 -20.847656 33.9375 -18.195312 33.9375 -15.1875 C 33.9375 -12.175781 33.238281 -9.519531 31.84375 -7.21875 C 30.457031 -4.925781 28.503906 -3.148438 25.984375 -1.890625 C 23.472656 -0.628906 20.597656 0 17.359375 0 L 4.078125 0 Z M 17.09375 -4.765625 C 19.320312 -4.765625 21.28125 -5.191406 22.96875 -6.046875 C 24.664062 -6.898438 25.96875 -8.113281 26.875 -9.6875 C 27.789062 -11.269531 28.25 -13.101562 28.25 -15.1875 C 28.25 -17.269531 27.789062 -19.097656 26.875 -20.671875 C 25.96875 -22.253906 24.664062 -23.46875 22.96875 -24.3125 C 21.28125 -25.164062 19.320312 -25.59375 17.09375 -25.59375 L 9.71875 -25.59375 L 9.71875 -4.765625 Z M 17.09375 -4.765625 "/></g></g></g><g fill="#001f54" fill-opacity="1"><g transform="translate(355.938148, 39.970828)"><g><path d="M 4.078125 -30.375 L 9.71875 -30.375 L 9.71875 0 L 4.078125 0 Z M 4.078125 -30.375 "/></g></g></g><g fill="#001f54" fill-opacity="1"><g transform="translate(366.524264, 39.970828)"><g><path d="M 18.140625 0.4375 C 15.066406 0.4375 12.296875 -0.234375 9.828125 -1.578125 C 7.359375 -2.921875 5.421875 -4.78125 4.015625 -7.15625 C 2.609375 -9.53125 1.90625 -12.207031 1.90625 -15.1875 C 1.90625 -18.164062 2.613281 -20.835938 4.03125 -23.203125 C 5.445312 -25.578125 7.390625 -27.4375 9.859375 -28.78125 C 12.335938 -30.132812 15.113281 -30.8125 18.1875 -30.8125 C 20.664062 -30.8125 22.929688 -30.375 24.984375 -29.5 C 27.046875 -28.632812 28.785156 -27.378906 30.203125 -25.734375 L 26.5625 -22.296875 C 24.351562 -24.671875 21.644531 -25.859375 18.4375 -25.859375 C 16.351562 -25.859375 14.488281 -25.398438 12.84375 -24.484375 C 11.195312 -23.578125 9.910156 -22.3125 8.984375 -20.6875 C 8.054688 -19.070312 7.59375 -17.238281 7.59375 -15.1875 C 7.59375 -13.132812 8.054688 -11.296875 8.984375 -9.671875 C 9.910156 -8.054688 11.195312 -6.789062 12.84375 -5.875 C 14.488281 -4.96875 16.351562 -4.515625 18.4375 -4.515625 C 21.644531 -4.515625 24.351562 -5.710938 26.5625 -8.109375 L 30.203125 -4.640625 C 28.785156 -2.992188 27.039062 -1.734375 24.96875 -0.859375 C 22.90625 0.00390625 20.628906 0.4375 18.140625 0.4375 Z M 18.140625 0.4375 "/></g></g></g><g fill="#001f54" fill-opacity="1"><g transform="translate(394.811612, 39.970828)"><g><path d="M 23.78125 -7.03125 L 8.59375 -7.03125 L 5.59375 0 L -0.21875 0 L 13.453125 -30.375 L 19 -30.375 L 32.71875 0 L 26.8125 0 Z M 21.90625 -11.453125 L 16.1875 -24.734375 L 10.5 -11.453125 Z M 21.90625 -11.453125 "/></g></g></g><g fill="#001f54" fill-opacity="1"><g transform="translate(424.053459, 39.970828)"><g><path d="M 13.5 0.4375 C 11.15625 0.4375 8.890625 0.101562 6.703125 -0.5625 C 4.515625 -1.226562 2.785156 -2.109375 1.515625 -3.203125 L 3.46875 -7.59375 C 4.71875 -6.613281 6.242188 -5.8125 8.046875 -5.1875 C 9.859375 -4.5625 11.675781 -4.25 13.5 -4.25 C 15.75 -4.25 17.429688 -4.609375 18.546875 -5.328125 C 19.660156 -6.054688 20.21875 -7.015625 20.21875 -8.203125 C 20.21875 -9.066406 19.90625 -9.78125 19.28125 -10.34375 C 18.664062 -10.90625 17.878906 -11.347656 16.921875 -11.671875 C 15.960938 -11.992188 14.660156 -12.351562 13.015625 -12.75 C 10.703125 -13.300781 8.828125 -13.851562 7.390625 -14.40625 C 5.960938 -14.957031 4.734375 -15.816406 3.703125 -16.984375 C 2.679688 -18.160156 2.171875 -19.742188 2.171875 -21.734375 C 2.171875 -23.410156 2.625 -24.9375 3.53125 -26.3125 C 4.445312 -27.6875 5.820312 -28.78125 7.65625 -29.59375 C 9.488281 -30.40625 11.738281 -30.8125 14.40625 -30.8125 C 16.257812 -30.8125 18.082031 -30.578125 19.875 -30.109375 C 21.664062 -29.648438 23.210938 -28.984375 24.515625 -28.109375 L 22.734375 -23.734375 C 21.398438 -24.515625 20.007812 -25.109375 18.5625 -25.515625 C 17.125 -25.921875 15.722656 -26.125 14.359375 -26.125 C 12.128906 -26.125 10.472656 -25.742188 9.390625 -24.984375 C 8.304688 -24.234375 7.765625 -23.238281 7.765625 -22 C 7.765625 -21.132812 8.070312 -20.425781 8.6875 -19.875 C 9.3125 -19.320312 10.101562 -18.882812 11.0625 -18.5625 C 12.019531 -18.25 13.320312 -17.890625 14.96875 -17.484375 C 17.226562 -16.960938 19.078125 -16.421875 20.515625 -15.859375 C 21.960938 -15.296875 23.203125 -14.4375 24.234375 -13.28125 C 25.265625 -12.125 25.78125 -10.5625 25.78125 -8.59375 C 25.78125 -6.914062 25.320312 -5.394531 24.40625 -4.03125 C 23.5 -2.675781 22.117188 -1.59375 20.265625 -0.78125 C 18.410156 0.03125 16.15625 0.4375 13.5 0.4375 Z M 13.5 0.4375 "/></g></g></g></g></g></svg>