<svg xmlns="http://www.w3.org/2000/svg" xmlns:xlink="http://www.w3.org/1999/xlink" width="2000" zoomAndPan="magnify" viewBox="0 0 1500 1499.999933" height="2000" preserveAspectRatio="xMidYMid meet" version="1.0"><defs><g/><clipPath id="0bcc754e28"><rect x="0" width="816" y="0" height="1366"/></clipPath></defs><g fill="#001f54" fill-opacity="1"><g transform="translate(561.941811, 1171.470318)"><g><path d="M 630.65625 -214.28125 C 630.65625 -181.84375 624.726562 -152.363281 612.875 -125.84375 C 601.03125 -99.332031 584.347656 -76.71875 562.828125 -58 C 541.304688 -39.289062 515.414062 -24.945312 485.15625 -14.96875 C 454.90625 -4.988281 421.066406 0 383.640625 0 L 50.53125 0 L 50.53125 -17.78125 C 68.613281 -17.78125 82.332031 -23.082031 91.6875 -33.6875 C 101.050781 -44.289062 105.734375 -61.445312 105.734375 -85.15625 L 105.734375 -663.40625 C 105.734375 -684 101.519531 -700.375 93.09375 -712.53125 C 84.675781 -724.695312 73.296875 -730.78125 58.953125 -730.78125 L 50.53125 -730.78125 L 50.53125 -748.5625 L 354.625 -748.5625 C 387.6875 -748.5625 417.628906 -744.816406 444.453125 -737.328125 C 471.273438 -729.847656 494.195312 -719.242188 513.21875 -705.515625 C 532.25 -691.796875 546.910156 -675.109375 557.203125 -655.453125 C 567.503906 -635.804688 572.65625 -614.128906 572.65625 -590.421875 C 572.65625 -545.515625 556.125 -508.242188 523.0625 -478.609375 C 490 -448.984375 444.769531 -429.488281 387.375 -420.125 C 424.800781 -415.132812 458.484375 -406.867188 488.421875 -395.328125 C 518.367188 -383.796875 543.945312 -369.140625 565.15625 -351.359375 C 586.375 -333.578125 602.59375 -313.144531 613.8125 -290.0625 C 625.039062 -266.988281 630.65625 -241.726562 630.65625 -214.28125 Z M 162.8125 -423.875 C 200.863281 -423.875 229.710938 -423.875 249.359375 -423.875 C 269.015625 -423.875 283.832031 -424.03125 293.8125 -424.34375 C 303.789062 -424.65625 311.273438 -424.8125 316.265625 -424.8125 C 321.253906 -424.8125 328.117188 -424.8125 336.859375 -424.8125 C 391.742188 -427.925781 435.25 -444.296875 467.375 -473.921875 C 499.507812 -503.554688 515.578125 -542.390625 515.578125 -590.421875 C 515.578125 -634.085938 501.070312 -669.019531 472.0625 -695.21875 C 443.050781 -721.425781 403.90625 -734.53125 354.625 -734.53125 L 162.8125 -734.53125 Z M 378.03125 -14.03125 C 406.71875 -14.03125 432.914062 -18.707031 456.625 -28.0625 C 480.332031 -37.425781 500.601562 -50.835938 517.4375 -68.296875 C 534.28125 -85.765625 547.378906 -106.816406 556.734375 -131.453125 C 566.097656 -156.097656 570.78125 -183.707031 570.78125 -214.28125 C 570.78125 -244.21875 564.226562 -271.503906 551.125 -296.140625 C 538.03125 -320.785156 519.472656 -341.84375 495.453125 -359.3125 C 471.441406 -376.78125 442.4375 -390.347656 408.4375 -400.015625 C 374.4375 -409.679688 336.539062 -414.515625 294.75 -414.515625 L 162.8125 -414.515625 L 162.8125 -14.03125 Z M 378.03125 -14.03125 "/></g></g></g><g transform="matrix(1, 0, 0, 1, 212, 0.000000000000112861)"><g clip-path="url(#0bcc754e28)"><g fill="#001f54" fill-opacity="1"><g transform="translate(10.164569, 1026.836527)"><g><path d="M 348.984375 -748.484375 C 406.992188 -748.484375 459.539062 -739.59375 506.625 -721.8125 C 553.71875 -704.039062 593.945312 -678.78125 627.3125 -646.03125 C 660.6875 -613.289062 686.570312 -574 704.96875 -528.15625 C 723.375 -482.3125 732.578125 -431.316406 732.578125 -375.171875 C 732.578125 -319.035156 724.625 -267.890625 708.71875 -221.734375 C 692.8125 -175.578125 670.515625 -136.125 641.828125 -103.375 C 613.140625 -70.632812 578.363281 -45.21875 537.5 -27.125 C 496.644531 -9.039062 451.582031 0 402.3125 0 L 49.59375 0 L 49.59375 -17.78125 C 67.675781 -17.78125 81.550781 -23.082031 91.21875 -33.6875 C 100.882812 -44.289062 105.71875 -61.441406 105.71875 -85.140625 L 105.71875 -663.34375 C 105.71875 -684.550781 101.351562 -701.234375 92.625 -713.390625 C 83.894531 -725.554688 72.351562 -731.640625 58 -731.640625 L 49.59375 -731.640625 L 49.59375 -748.484375 Z M 402.3125 -14.96875 C 443.476562 -14.96875 480.898438 -23.539062 514.578125 -40.6875 C 548.265625 -57.84375 577.113281 -82.171875 601.125 -113.671875 C 625.144531 -145.171875 643.703125 -183.0625 656.796875 -227.34375 C 669.898438 -271.632812 676.453125 -320.910156 676.453125 -375.171875 C 676.453125 -428.816406 668.65625 -477.78125 653.0625 -522.0625 C 637.46875 -566.351562 615.320312 -604.25 586.625 -635.75 C 557.9375 -667.25 523.472656 -691.570312 483.234375 -708.71875 C 443.003906 -725.875 398.253906 -734.453125 348.984375 -734.453125 L 161.859375 -734.453125 L 161.859375 -14.96875 Z M 402.3125 -14.96875 "/></g></g></g></g></g></svg>